<svg height="512pt" viewBox="-52 0 511 512" width="512pt" xmlns="http://www.w3.org/2000/svg"><path d="m385.175781 416v-309.738281c0-26.9375-21.917969-48.855469-48.855469-48.855469-6.679687 0-13.050781 1.351562-18.855468 3.789062v-12.339843c0-26.941407-21.914063-48.855469-48.855469-48.855469-13.132813 0-25.0625 5.21875-33.851563 13.683594-8.789062-8.464844-20.71875-13.683594-33.855468-13.683594-26.9375 0-48.851563 21.914062-48.851563 48.855469v5.296875c-5.804687-2.4375-12.175781-3.789063-18.855469-3.789063-26.9375 0-48.855468 21.917969-48.855468 48.855469v126.355469c-8.867188-9.125-20.710938-14.371094-33.464844-14.769531-13.058594-.417969-25.464844 4.28125-34.976562 13.210937-19.640626 18.4375-20.617188 49.417969-2.214844 69.015625l70.65625 75.816406v47.152344h-22.082032v96h345v-96zm-48.855469-328.59375c10.394532 0 18.855469 8.460938 18.855469 18.855469v99.738281h-37.710937v-99.738281c0-10.394531 8.460937-18.855469 18.855468-18.855469zm-67.710937-57.40625c10.398437 0 18.855469 8.457031 18.855469 18.855469v157.144531h-37.707032v-157.144531c0-10.398438 8.457032-18.855469 18.851563-18.855469zm-86.558594 18.855469c0-10.398438 8.457031-18.855469 18.851563-18.855469 10.398437 0 18.855468 8.457031 18.855468 18.855469v157.144531h-37.707031zm-67.710937 50.363281c0-10.398438 8.460937-18.855469 18.855468-18.855469 10.394532 0 18.855469 8.457031 18.855469 18.855469v106.78125h-37.710937zm-78.75 173.320312c-7.113282-7.578124-6.738282-19.535156.839844-26.652343 3.671874-3.445313 8.445312-5.253907 13.5-5.097657 5.035156.160157 9.703124 2.269532 13.152343 5.9375l21.257813 22.644532v55.472656zm78.75-36.539062h240.835937v180h-240.835937zm262.917968 246h-285v-36h285zm0 0"/><path d="m170.023438 265.667969h30v49.332031h-30zm0 0"/><path d="m222.257812 265.667969h30v49.332031h-30zm0 0"/><path d="m274.496094 265.667969h30v49.332031h-30zm0 0"/></svg>